<?xml version="1.0" encoding="utf-8"?>
<!-- Generator: Adobe Illustrator 27.2.0, SVG Export Plug-In . SVG Version: 6.00 Build 0)  -->
<svg version="1.1" id="Layer_1" xmlns="http://www.w3.org/2000/svg" xmlns:xlink="http://www.w3.org/1999/xlink" x="0px" y="0px"
	 viewBox="0 0 64 64" style="enable-background:new 0 0 64 64;" xml:space="preserve">
<style type="text/css">
	.st0{fill:#FFFFFF;}
	.st1{fill:#020203;}
	.st2{fill:none;}
	.st3{fill:#161F24;}
</style>
<g>
	<g>
		<path class="st0" d="M32.15,58.52c-14.55,0-26.4-11.84-26.4-26.4c0-14.55,11.84-26.4,26.4-26.4c14.55,0,26.4,11.84,26.4,26.4
			C58.54,46.69,46.7,58.52,32.15,58.52z"/>
		<path class="st1" d="M32.15,6.66c14.04,0,25.46,11.43,25.46,25.46c0,14.05-11.43,25.46-25.46,25.46S6.68,46.17,6.68,32.13
			C6.68,18.09,18.1,6.66,32.15,6.66 M32.15,4.8C17.05,4.8,4.81,17.03,4.81,32.13s12.23,27.33,27.33,27.33s27.33-12.23,27.33-27.33
			C59.47,17.03,47.24,4.8,32.15,4.8L32.15,4.8z"/>
	</g>
	<path class="st2" d="M56.16,25.48c-1.07-3.88-3.06-7.38-5.73-10.26c-2.85-0.15-5.7-0.28-8.56-0.36c-1.32-2.32-2.61-4.64-3.88-6.95
		c-1.87-0.46-3.83-0.7-5.85-0.7c-1.99,0-3.92,0.24-5.78,0.68c-1.28,2.34-2.59,4.67-3.92,7c-2.88,0.09-5.76,0.22-8.65,0.39
		c-2.43,2.64-4.3,5.8-5.41,9.31c1.43,2.46,2.94,4.96,4.47,7.51c-1.55,2.55-3.06,5.06-4.51,7.52c1.24,3.91,3.41,7.41,6.25,10.22
		c2.61,0.15,5.22,0.27,7.83,0.34c1.16,2.02,2.29,4.05,3.42,6.08c2.01,0.52,4.11,0.81,6.28,0.81c2.2,0,4.34-0.29,6.37-0.82
		c1.11-2.01,2.22-4.03,3.37-6.03c2.58-0.08,5.16-0.19,7.74-0.32c3.09-3.04,5.38-6.89,6.56-11.18c-1.28-2.17-2.6-4.37-3.97-6.61
		C53.57,29.85,54.89,27.64,56.16,25.48z M36.96,40.28c-3.2,0.02-6.4,0.02-9.61-0.01c-1.62-2.75-3.25-5.48-4.87-8.2
		c1.61-2.72,3.25-5.46,4.88-8.2c3.2-0.03,6.4-0.03,9.6-0.01c1.62,2.75,3.25,5.49,4.87,8.21C40.21,34.8,38.58,37.53,36.96,40.28z"/>
	<path class="st3" d="M27.36,23.88c-1.62,2.75-3.26,5.49-4.88,8.2c1.61,2.71,3.25,5.45,4.87,8.2c3.2,0.02,6.4,0.03,9.61,0.01
		c1.62-2.75,3.25-5.49,4.86-8.2c-1.61-2.72-3.25-5.46-4.87-8.21C33.75,23.85,30.56,23.85,27.36,23.88z"/>
	<path class="st1" d="M38.52,56.22c-2.03,0.54-4.16,0.82-6.37,0.82c-2.17,0-4.28-0.28-6.28-0.81c0.5,0.89,1,1.79,1.48,2.69
		c-0.02,0.03-0.03,0.05-0.04,0.09c1.57,0.28,3.19,0.44,4.84,0.44c1.67,0,3.31-0.15,4.9-0.45c-0.01-0.02-0.02-0.03-0.03-0.05
		C37.5,58.04,38.01,57.13,38.52,56.22z"/>
	<path class="st3" d="M31.85,4.75c-15.09,0-27.33,12.23-27.33,27.33S16.76,59.4,31.85,59.4s27.33-12.23,27.33-27.33
		S46.95,4.75,31.85,4.75z M50.15,15.16c-0.39-0.43-0.81-0.84-1.23-1.24C49.34,14.33,49.75,14.74,50.15,15.16z M26.08,7.83
		c-2.45,0.58-4.76,1.53-6.87,2.77C21.32,9.36,23.63,8.41,26.08,7.83z M19.19,10.61c-0.52,0.31-1.02,0.64-1.51,0.97
		C18.17,11.25,18.68,10.92,19.19,10.61z M17.6,11.64c-0.48,0.33-0.94,0.69-1.4,1.05C16.67,12.32,17.13,11.98,17.6,11.64z
		 M16.18,12.72c-0.46,0.37-0.89,0.75-1.31,1.15C15.29,13.47,15.72,13.08,16.18,12.72z M14.73,13.99c-0.42,0.39-0.82,0.8-1.21,1.22
		C13.9,14.79,14.31,14.38,14.73,13.99z M7,30.32c-0.04,0.58-0.07,1.16-0.07,1.75c0,0.58,0.03,1.16,0.07,1.73
		c-0.04-0.58-0.07-1.15-0.07-1.73C6.93,31.48,6.96,30.9,7,30.32z M8.11,24.52c-0.18,0.57-0.33,1.13-0.48,1.72
		C7.76,25.65,7.93,25.08,8.11,24.52z M7.58,26.47c-0.13,0.57-0.25,1.14-0.33,1.72C7.33,27.61,7.45,27.03,7.58,26.47z M7.23,28.2
		c-0.09,0.57-0.15,1.15-0.21,1.73C7.08,29.35,7.15,28.78,7.23,28.2z M49.33,49.82c-2.58,0.14-5.16,0.25-7.74,0.32
		c-1.14,2.01-2.27,4.02-3.37,6.03c0.49-0.13,0.98-0.28,1.46-0.44C37.21,56.54,34.58,57,31.85,57c-2.17,0-4.28-0.28-6.28-0.81
		c-1.12-2.03-2.26-4.05-3.42-6.08c-2.61-0.08-5.22-0.2-7.83-0.34c0.35,0.35,0.72,0.69,1.09,1.01c-3.8-3.34-6.58-7.81-7.8-12.89
		c0.14,0.56,0.28,1.11,0.46,1.65c1.44-2.46,2.95-4.97,4.51-7.52c-1.55-2.55-3.05-5.06-4.47-7.51c1.12-3.49,2.98-6.66,5.41-9.31
		c2.88-0.16,5.76-0.3,8.65-0.39c1.33-2.33,2.64-4.66,3.92-7c1.85-0.44,3.79-0.68,5.78-0.68c4.62,0,8.95,1.27,12.66,3.47
		c-2.09-1.24-4.38-2.18-6.8-2.76c1.27,2.32,2.56,4.64,3.88,6.95c2.85,0.09,5.7,0.21,8.56,0.36c3.37,3.64,5.67,8.29,6.39,13.44
		c-0.15-1.08-0.38-2.15-0.66-3.18c-1.27,2.17-2.58,4.37-3.94,6.61c1.37,2.24,2.69,4.44,3.97,6.61
		C54.72,42.94,52.42,46.78,49.33,49.82z M49.33,49.82c-0.35,0.35-0.72,0.69-1.1,1.01C48.61,50.51,48.98,50.17,49.33,49.82z
		 M48.08,50.98c-0.38,0.33-0.76,0.64-1.16,0.94C47.32,51.61,47.7,51.3,48.08,50.98z M46.91,51.92c-0.42,0.32-0.85,0.63-1.3,0.92
		C46.05,52.55,46.49,52.24,46.91,51.92z M45.57,52.88c-0.4,0.27-0.82,0.52-1.24,0.76C44.76,53.39,45.17,53.14,45.57,52.88z
		 M44.13,53.75c-0.43,0.25-0.87,0.48-1.32,0.7C43.26,54.23,43.7,54,44.13,53.75z M42.8,54.46c-0.47,0.23-0.96,0.46-1.45,0.65
		C41.85,54.91,42.33,54.7,42.8,54.46z M41.25,55.15c-0.44,0.18-0.88,0.34-1.33,0.5C40.37,55.49,40.82,55.33,41.25,55.15z
		 M25.57,56.2c-0.49-0.13-0.97-0.27-1.45-0.43C24.6,55.92,25.08,56.07,25.57,56.2z M23.79,55.65c-0.4-0.14-0.8-0.28-1.18-0.44
		C22.99,55.37,23.39,55.52,23.79,55.65z M22.36,55.12c-0.47-0.2-0.94-0.4-1.4-0.63C21.41,54.7,21.88,54.92,22.36,55.12z
		 M20.86,54.44c-0.42-0.21-0.83-0.43-1.24-0.65C20.03,54.01,20.44,54.22,20.86,54.44z M19.35,53.62c-0.39-0.23-0.77-0.46-1.15-0.71
		C18.57,53.16,18.96,53.39,19.35,53.62z M18.08,52.82c-0.43-0.28-0.85-0.58-1.26-0.9C17.22,52.24,17.64,52.54,18.08,52.82z
		 M16.69,51.84c-0.36-0.27-0.71-0.57-1.06-0.87C15.98,51.27,16.33,51.56,16.69,51.84z M7.03,34.2c0.05,0.57,0.11,1.14,0.2,1.7
		C7.14,35.35,7.08,34.78,7.03,34.2z M7.22,35.91c0.09,0.57,0.2,1.12,0.33,1.67C7.43,37.03,7.31,36.47,7.22,35.91z M48.84,13.86
		c-0.43-0.4-0.88-0.79-1.33-1.16C47.97,13.07,48.41,13.45,48.84,13.86z M47.5,12.68c-0.46-0.37-0.93-0.72-1.42-1.06
		C46.57,11.96,47.04,12.31,47.5,12.68z M46.04,11.59c-0.49-0.34-1-0.67-1.51-0.97C45.04,10.92,45.55,11.25,46.04,11.59z
		 M56.78,32.07c0,0.52-0.02,1.03-0.05,1.55C56.76,33.1,56.78,32.59,56.78,32.07c0-0.52-0.02-1.05-0.05-1.56
		C56.76,31.03,56.78,31.55,56.78,32.07z M56.7,30.13c-0.03-0.44-0.08-0.88-0.14-1.3C56.62,29.26,56.66,29.7,56.7,30.13z M56.7,34
		c-0.03,0.42-0.08,0.84-0.13,1.25C56.62,34.84,56.66,34.42,56.7,34z M56.54,35.53c-0.15,1.06-0.36,2.1-0.64,3.12
		C56.18,37.63,56.39,36.58,56.54,35.53z"/>
</g>
</svg>
