<?xml version="1.0" encoding="utf-8"?>
<!-- Generator: Adobe Illustrator 27.2.0, SVG Export Plug-In . SVG Version: 6.00 Build 0)  -->
<svg version="1.1" id="Layer_1" xmlns="http://www.w3.org/2000/svg" xmlns:xlink="http://www.w3.org/1999/xlink" x="0px" y="0px"
	 viewBox="0 0 64 64" style="enable-background:new 0 0 64 64;" xml:space="preserve">
<style type="text/css">
	.st0{display:none;}
	.st1{display:inline;}
	.st2{fill:#FFFFFF;}
	.st3{fill:#020203;}
	.st4{display:inline;fill:none;}
	.st5{display:inline;fill:#161F24;}
	.st6{display:inline;fill:#020203;}
	.st7{display:inline;fill:#FDCF08;}
	.st8{display:none;fill:#E54141;}
	.st9{fill:#E54141;}
	.st10{fill:#FDCF08;}
</style>
<g class="st0">
	<g class="st1">
		<path class="st2" d="M32.17,62.88c-16.95,0-30.75-13.79-30.75-30.75c0-16.95,13.79-30.75,30.75-30.75
			c16.95,0,30.75,13.79,30.75,30.75C62.91,49.09,49.12,62.88,32.17,62.88z"/>
		<path class="st3" d="M32.17,2.47c16.35,0,29.66,13.31,29.66,29.66c0,16.36-13.31,29.66-29.66,29.66S2.51,48.49,2.51,32.13
			C2.51,15.78,15.81,2.47,32.17,2.47 M32.17,0.3C14.59,0.3,0.33,14.55,0.33,32.13c0,17.58,14.25,31.83,31.83,31.83
			S64,49.72,64,32.13C64,14.55,49.75,0.3,32.17,0.3L32.17,0.3z"/>
	</g>
	<path class="st4" d="M60.14,24.39c-1.25-4.52-3.57-8.6-6.67-11.95c-3.32-0.18-6.64-0.33-9.97-0.42c-1.54-2.7-3.04-5.4-4.52-8.1
		C36.8,3.39,34.52,3.1,32.17,3.1c-2.32,0-4.57,0.28-6.73,0.79c-1.49,2.72-3.02,5.44-4.57,8.15c-3.36,0.1-6.71,0.26-10.07,0.45
		c-2.83,3.08-5.01,6.76-6.3,10.84c1.67,2.86,3.42,5.78,5.21,8.75c-1.81,2.97-3.56,5.89-5.25,8.76c1.44,4.56,3.97,8.63,7.28,11.91
		c3.04,0.17,6.08,0.31,9.12,0.4c1.35,2.35,2.67,4.72,3.98,7.08c2.34,0.61,4.79,0.94,7.32,0.94c2.56,0,5.05-0.34,7.42-0.96
		c1.29-2.34,2.59-4.69,3.93-7.02c3.01-0.09,6.01-0.22,9.02-0.37c3.6-3.54,6.27-8.02,7.64-13.02c-1.49-2.53-3.03-5.09-4.62-7.7
		C57.13,29.48,58.66,26.91,60.14,24.39z M37.78,41.63c-3.73,0.02-7.46,0.02-11.19-0.01c-1.89-3.2-3.79-6.38-5.67-9.55
		c1.88-3.17,3.78-6.36,5.68-9.55c3.73-0.03,7.45-0.03,11.18-0.01c1.89,3.2,3.79,6.39,5.67,9.56C41.56,35.24,39.66,38.43,37.78,41.63
		z"/>
	<path class="st5" d="M26.59,22.52c-1.89,3.2-3.8,6.39-5.68,9.55c1.87,3.16,3.78,6.35,5.67,9.55c3.73,0.02,7.46,0.03,11.19,0.01
		c1.89-3.2,3.79-6.39,5.66-9.55c-1.88-3.17-3.78-6.36-5.67-9.56C34.04,22.49,30.32,22.49,26.59,22.52z"/>
	<path class="st6" d="M39.59,60.2c-2.37,0.63-4.85,0.96-7.42,0.96c-2.53,0-4.98-0.33-7.32-0.94c0.58,1.04,1.16,2.09,1.72,3.13
		c-0.02,0.03-0.03,0.06-0.05,0.1c1.83,0.33,3.71,0.51,5.64,0.51c1.95,0,3.86-0.18,5.71-0.52c-0.01-0.02-0.02-0.04-0.03-0.06
		C38.41,62.32,39,61.26,39.59,60.2z"/>
	<path class="st5" d="M31.83,0.24C14.25,0.24,0,14.49,0,32.07S14.25,63.9,31.83,63.9c17.58,0,31.83-14.25,31.83-31.83
		S49.41,0.24,31.83,0.24z M53.14,12.37c-0.46-0.5-0.94-0.98-1.43-1.44C52.2,11.4,52.68,11.88,53.14,12.37z M25.11,3.83
		c-2.85,0.68-5.54,1.78-8,3.23C19.56,5.61,22.25,4.51,25.11,3.83z M17.08,7.07c-0.6,0.36-1.19,0.74-1.76,1.13
		C15.89,7.81,16.48,7.43,17.08,7.07z M15.23,8.27c-0.56,0.39-1.1,0.8-1.63,1.22C14.14,9.06,14.68,8.66,15.23,8.27z M13.57,9.52
		c-0.53,0.43-1.04,0.87-1.53,1.34C12.53,10.4,13.04,9.95,13.57,9.52z M11.88,11.01c-0.49,0.46-0.96,0.93-1.41,1.42
		C10.92,11.94,11.4,11.46,11.88,11.01z M2.88,30.03C2.83,30.7,2.8,31.38,2.8,32.07c0,0.68,0.03,1.35,0.08,2.01
		c-0.05-0.67-0.08-1.34-0.08-2.01C2.8,31.38,2.83,30.7,2.88,30.03z M4.17,23.27c-0.21,0.66-0.39,1.32-0.56,2
		C3.77,24.59,3.96,23.92,4.17,23.27z M3.55,25.54c-0.15,0.66-0.29,1.33-0.39,2C3.26,26.87,3.4,26.2,3.55,25.54z M3.15,27.56
		c-0.1,0.66-0.18,1.34-0.24,2.01C2.97,28.9,3.05,28.23,3.15,27.56z M52.19,52.74c-3.01,0.16-6.01,0.29-9.02,0.37
		c-1.33,2.34-2.64,4.68-3.93,7.02c0.57-0.15,1.14-0.33,1.7-0.51c-2.87,0.95-5.93,1.48-9.12,1.48c-2.53,0-4.98-0.33-7.32-0.94
		c-1.31-2.36-2.63-4.72-3.98-7.08c-3.04-0.09-6.08-0.23-9.12-0.4c0.41,0.41,0.84,0.8,1.27,1.18c-4.43-3.89-7.66-9.1-9.08-15.02
		c0.16,0.65,0.33,1.29,0.53,1.92c1.68-2.86,3.44-5.79,5.25-8.76c-1.8-2.97-3.55-5.89-5.21-8.75c1.3-4.07,3.47-7.76,6.3-10.84
		c3.36-0.19,6.71-0.35,10.07-0.45c1.55-2.71,3.07-5.43,4.57-8.15c2.16-0.51,4.41-0.79,6.73-0.79c5.38,0,10.42,1.48,14.75,4.04
		c-2.44-1.44-5.1-2.54-7.92-3.22c1.48,2.7,2.98,5.41,4.52,8.1c3.32,0.1,6.64,0.24,9.97,0.42c3.92,4.24,6.6,9.66,7.44,15.65
		c-0.18-1.26-0.44-2.5-0.77-3.7c-1.48,2.53-3.01,5.09-4.59,7.7c1.59,2.61,3.13,5.17,4.62,7.7C58.47,44.73,55.79,49.2,52.19,52.74z
		 M52.19,52.74c-0.41,0.41-0.84,0.8-1.28,1.18C51.35,53.54,51.78,53.15,52.19,52.74z M50.73,54.09c-0.44,0.38-0.89,0.74-1.35,1.09
		C49.84,54.83,50.29,54.46,50.73,54.09z M49.37,55.19c-0.49,0.37-0.99,0.73-1.51,1.07C48.37,55.92,48.88,55.56,49.37,55.19z
		 M47.81,56.3c-0.47,0.31-0.95,0.61-1.44,0.89C46.86,56.9,47.34,56.61,47.81,56.3z M46.13,57.32c-0.5,0.29-1.01,0.56-1.54,0.82
		C45.12,57.88,45.63,57.61,46.13,57.32z M44.58,58.15c-0.55,0.27-1.12,0.53-1.69,0.76C43.47,58.67,44.03,58.42,44.58,58.15z
		 M42.78,58.95c-0.51,0.21-1.03,0.4-1.55,0.58C41.75,59.35,42.27,59.16,42.78,58.95z M24.51,60.17c-0.57-0.15-1.13-0.32-1.69-0.5
		C23.38,59.85,23.94,60.02,24.51,60.17z M22.44,59.53c-0.47-0.16-0.93-0.33-1.38-0.51C21.51,59.2,21.97,59.38,22.44,59.53z
		 M20.77,58.91c-0.55-0.23-1.1-0.47-1.63-0.73C19.67,58.43,20.21,58.68,20.77,58.91z M19.02,58.12c-0.49-0.24-0.97-0.5-1.44-0.76
		C18.06,57.62,18.53,57.87,19.02,58.12z M17.26,57.17c-0.46-0.27-0.9-0.54-1.34-0.83C16.36,56.63,16.81,56.9,17.26,57.17z
		 M15.78,56.24c-0.5-0.33-0.99-0.68-1.47-1.05C14.78,55.56,15.27,55.91,15.78,56.24z M14.17,55.09c-0.42-0.32-0.83-0.66-1.24-1.01
		C13.34,54.43,13.75,54.77,14.17,55.09z M2.91,34.55c0.06,0.66,0.13,1.33,0.23,1.98C3.04,35.88,2.97,35.22,2.91,34.55z M3.14,36.54
		c0.1,0.66,0.23,1.3,0.38,1.94C3.38,37.84,3.24,37.19,3.14,36.54z M51.62,10.85c-0.5-0.47-1.02-0.92-1.55-1.35
		C50.6,9.93,51.12,10.38,51.62,10.85z M50.05,9.48c-0.53-0.43-1.08-0.84-1.65-1.24C48.97,8.64,49.52,9.05,50.05,9.48z M48.35,8.21
		c-0.57-0.4-1.16-0.78-1.76-1.13C47.19,7.43,47.78,7.81,48.35,8.21z M60.87,32.07c0,0.61-0.02,1.2-0.06,1.8
		C60.84,33.27,60.87,32.67,60.87,32.07c0-0.61-0.02-1.22-0.06-1.82C60.84,30.85,60.87,31.46,60.87,32.07z M60.77,29.81
		c-0.04-0.51-0.09-1.02-0.16-1.52C60.68,28.79,60.73,29.3,60.77,29.81z M60.77,34.31c-0.04,0.49-0.09,0.98-0.15,1.46
		C60.68,35.29,60.73,34.8,60.77,34.31z M60.58,36.09c-0.17,1.24-0.42,2.45-0.75,3.63C60.16,38.54,60.41,37.32,60.58,36.09z"/>
</g>
<g class="st0">
	<path class="st7" d="M47.71,60.68c-0.32,1.95-2.17,3.29-4.13,2.97l-32.16-5.21c-1.95-0.32-3.29-2.17-2.97-4.13l8.27-51.06
		c0.32-1.95,2.17-3.29,4.13-2.97l32.16,5.21c1.95,0.32,3.29,2.17,2.97,4.13L47.71,60.68z"/>
	<path class="st7" d="M11.5,35.54L8.45,54.32c-0.32,1.95,1.02,3.81,2.97,4.12l32.16,5.21c1.95,0.32,3.81-1.02,4.12-2.97l5.53-34.11
		c-7.11,7.26-16.83,11.75-27.56,11.75C20.67,38.32,15.9,37.31,11.5,35.54z"/>
</g>
<path class="st8" d="M47.82,60.81c-0.32,1.96-2.18,3.3-4.14,2.98l-32.24-5.22c-1.96-0.32-3.3-2.18-2.98-4.14l8.29-51.2
	c0.32-1.96,2.18-3.3,4.14-2.98l32.24,5.22c1.96,0.32,3.3,2.18,2.98,4.14L47.82,60.81z"/>
<path class="st9" d="M40.71,46.69c0.11,1.68-1.17,3.14-2.84,3.25l-27.61,1.84C8.58,51.89,7.11,50.61,7,48.94L4.08,5.1
	C3.97,3.42,5.25,1.96,6.92,1.85l27.61-1.84c1.68-0.11,3.14,1.17,3.25,2.84L40.71,46.69z"/>
<path class="st10" d="M57.19,18.34l-15.32-2.77l1.95,29.29c0.28,4.2-2.91,7.85-7.11,8.13l-14.6,0.97l-0.34,1.89
	c-0.3,1.65,0.81,3.25,2.46,3.55l24.72,4.47c1.65,0.3,3.25-0.81,3.55-2.46l7.15-39.52C59.96,20.23,58.85,18.63,57.19,18.34z"/>
</svg>
